<svg id="visual" viewBox="0 0 960 540" width="960" height="540" xmlns="http://www.w3.org/2000/svg" xmlns:xlink="http://www.w3.org/1999/xlink" version="1.1"><rect x="0" y="0" width="960" height="540" fill="#002233"></rect><path d="M0 379L22.8 382.2C45.7 385.3 91.3 391.7 137 404C182.7 416.3 228.3 434.7 274 445.5C319.7 456.3 365.3 459.7 411.2 456.8C457 454 503 445 548.8 433.8C594.7 422.7 640.3 409.3 686 403C731.7 396.7 777.3 397.3 823 401.2C868.7 405 914.3 412 937.2 415.5L960 419L960 541L937.2 541C914.3 541 868.7 541 823 541C777.3 541 731.7 541 686 541C640.3 541 594.7 541 548.8 541C503 541 457 541 411.2 541C365.3 541 319.7 541 274 541C228.3 541 182.7 541 137 541C91.3 541 45.7 541 22.8 541L0 541Z" fill="#0066FF" stroke-linecap="round" stroke-linejoin="miter"></path></svg>